<svg width="25" height="20" viewBox="0 0 25 20" fill="none" xmlns="http://www.w3.org/2000/svg">
<path fill-rule="evenodd" clip-rule="evenodd" d="M6.32178 1.18691C10.3009 0.841016 14.3026 0.841016 18.2817 1.18691L20.1897 1.35371C21.0768 1.43094 21.9121 1.8045 22.561 2.41422C23.2099 3.02394 23.6347 3.83433 23.767 4.71488C24.34 8.52637 24.34 12.4021 23.767 16.2136C23.7164 16.5472 23.6255 16.8669 23.4991 17.1664C23.4157 17.3647 23.1579 17.3951 23.0114 17.2359L17.425 11.0897C17.3015 10.9538 17.1411 10.8568 16.9634 10.8104C16.7858 10.7639 16.5984 10.7701 16.4242 10.8282L13.2261 11.8946L8.58741 6.67598C8.5016 6.57944 8.39697 6.50146 8.27994 6.44682C8.16291 6.39219 8.03594 6.36205 7.90684 6.35827C7.77774 6.35448 7.64922 6.37712 7.52919 6.4248C7.40916 6.47248 7.30013 6.5442 7.20882 6.63554L0.999508 12.8449C0.957325 12.8882 0.903407 12.9183 0.844364 12.9315C0.785322 12.9447 0.723721 12.9403 0.667113 12.919C0.610505 12.8976 0.56135 12.8603 0.525675 12.8114C0.49 12.7626 0.469355 12.7044 0.46627 12.6439C0.316849 9.99484 0.440491 7.3374 0.835241 4.71361C0.96752 3.83307 1.39233 3.02268 2.04124 2.41296C2.69016 1.80324 3.52541 1.42968 4.41248 1.35245L6.32178 1.18691ZM14.8283 6.67345C14.8283 6.17076 15.028 5.68866 15.3835 5.3332C15.7389 4.97775 16.221 4.77806 16.7237 4.77806C17.2264 4.77806 17.7085 4.97775 18.0639 5.3332C18.4194 5.68866 18.6191 6.17076 18.6191 6.67345C18.6191 7.17614 18.4194 7.65824 18.0639 8.0137C17.7085 8.36915 17.2264 8.56885 16.7237 8.56885C16.221 8.56885 15.7389 8.36915 15.3835 8.0137C15.028 7.65824 14.8283 7.17614 14.8283 6.67345Z" fill="#C7C7C7"/>
<path d="M0.879505 15.6451C0.845299 15.6795 0.819515 15.7213 0.804171 15.7674C0.788827 15.8134 0.784337 15.8624 0.791054 15.9104L0.83528 16.2137C0.967559 17.0942 1.39237 17.9046 2.04128 18.5143C2.6902 19.1241 3.52545 19.4976 4.41252 19.5748L6.32055 19.7404C10.3009 20.0866 14.3014 20.0866 18.2818 19.7404L20.1898 19.5748C20.7131 19.5296 21.2221 19.3805 21.6871 19.1364C21.8603 19.0467 21.8893 18.818 21.7579 18.6739L16.5772 12.9751C16.536 12.9293 16.4824 12.8966 16.4229 12.8809C16.3635 12.8652 16.3007 12.8672 16.2423 12.8866L13.2324 13.8899C13.0565 13.9487 12.8671 13.9545 12.6879 13.9067C12.5086 13.8588 12.3474 13.7594 12.2241 13.6208L8.06052 8.93663C8.03186 8.90444 7.99691 8.87846 7.95783 8.86028C7.91875 8.8421 7.87637 8.83211 7.83328 8.83093C7.7902 8.82975 7.74732 8.83739 7.7073 8.8534C7.66728 8.8694 7.63096 8.89343 7.60057 8.92399L0.879505 15.6451Z" fill="#C7C7C7"/>
</svg>
